<?xml version="1.0" encoding="utf-8"?>
<!-- Generator: Adobe Illustrator 26.0.0, SVG Export Plug-In . SVG Version: 6.00 Build 0)  -->
<svg version="1.1" id="Layer_1" xmlns="http://www.w3.org/2000/svg" xmlns:xlink="http://www.w3.org/1999/xlink" x="0px" y="0px"
	 viewBox="0 0 1363.39 750.89" style="enable-background:new 0 0 1363.39 750.89;" xml:space="preserve">
<style type="text/css">
	.st0{fill:#1E1917;}
	.st1{fill:#FF9400;}
	.st2{fill:#FF4C02;}
</style>
<g>
	<path class="st0" d="M14.07,170.29L12.61,1.94h98.49l-1.46,130.51l91.7-130.51h110.62l-105.28,133.9l114.01,202.31H216.87
		l-69.38-126.14l-37.36,47.55l0.97,78.6H12.61L14.07,170.29z"/>
	<path class="st0" d="M336.89,169.8L335.44,1.94h121.77C581.73,1.94,644,57.41,644,168.35c0,56.93-15.45,99.46-46.33,127.6
		c-30.89,28.14-77.71,42.21-140.45,42.21H335.44L336.89,169.8z M432.47,257.13h24.74c30.08,0,52.47-7.28,67.19-21.83
		c14.71-14.55,22.08-36.87,22.08-66.95c0-57.25-29.76-85.87-89.27-85.87h-24.74l-1.46,87.33L432.47,257.13z"/>
	<path class="st0" d="M670.15,169.8L668.69,1.94h144.09c46.25,0,81.67,9.63,106.25,28.87c24.58,19.25,36.87,48.27,36.87,87.09
		c0,39.14-12.3,68.33-36.87,87.57c-24.58,19.25-60.49,28.87-107.71,28.87h-45.12l0.97,103.82h-98.49L670.15,169.8z M814.24,160.58
		c32.99,0,49.49-13.9,49.49-41.72c0-12.93-4.12-22.8-12.37-29.59c-8.25-6.79-20.62-10.19-37.12-10.19h-48.52v81.51H814.24z"/>
	<path class="st0" d="M75.44,719.88c-24.42-13.9-43.1-34.04-56.04-60.4C6.47,633.12,0,601.67,0,565.11c0-36.54,6.47-68,19.41-94.36
		c12.93-26.36,31.61-46.41,56.04-60.16c24.42-13.75,53.61-20.62,87.57-20.62c42.04,0,76.09,10.76,102.13,32.26
		c26.03,21.51,41.48,50.7,46.33,87.57l-86.84,23.77c-6.79-43.01-27.17-64.53-61.13-64.53c-20.38,0-36.14,8.33-47.3,24.99
		c-11.16,16.66-16.74,40.35-16.74,71.08c0,30.73,5.58,54.5,16.74,71.32c11.16,16.82,27.09,25.23,47.79,25.23
		c33.96,0,54.5-22.48,61.62-67.44L311.96,618c-4.85,38.17-20.46,68.16-46.82,90c-26.37,21.83-60.57,32.75-102.61,32.75
		C128.89,740.74,99.86,733.78,75.44,719.88z"/>
	<path class="st0" d="M784.99,565.6l-1.46-168.35h102.85l57.25,113.04l45.6,90.73h0.97v-79.08l-0.49-124.69h90.73l-1.46,167.86
		l1.46,168.35H977.6L874.74,529.7h-0.97v79.08l0.49,124.69h-90.73L784.99,565.6z"/>
	<path class="st0" d="M1122.27,565.6l-1.46-168.35h242.58v75.68h-145.06l-0.49,63.56h139.24v70.35h-139.24l1.46,126.63h-98.49
		L1122.27,565.6z"/>
	<path class="st1" d="M1257.06,0H989.05v338.15h338.15V70.14C1327.2,31.41,1295.8,0,1257.06,0z M1236.71,87.46
		c-2.91,2.91-6.92,4.71-11.36,4.71H1090.9c-8.87,0-16.07-7.19-16.07-16.07c0-4.44,1.8-8.45,4.71-11.36
		c2.91-2.91,6.92-4.71,11.36-4.71h134.44c8.87,0,16.07,7.19,16.07,16.07C1241.42,80.54,1239.62,84.56,1236.71,87.46z"/>
	<circle class="st2" cx="538.24" cy="570.77" r="180.11"/>
</g>
</svg>
