<?xml version="1.0" encoding="utf-8"?>
<!-- Generator: Adobe Illustrator 26.0.0, SVG Export Plug-In . SVG Version: 6.00 Build 0)  -->
<svg version="1.1" id="Layer_1" xmlns="http://www.w3.org/2000/svg" xmlns:xlink="http://www.w3.org/1999/xlink" x="0px" y="0px"
	 viewBox="0 0 781.57 232.62" style="enable-background:new 0 0 781.57 232.62;" xml:space="preserve">
<style type="text/css">
	.st0{fill:#25275F;}
	.st1{fill:none;}
	.st2{fill:#FFFFFF;}
	.st3{opacity:0.57;fill:url(#SVGID_1_);}
	.st4{fill:#00A550;}
</style>
<g>
	<g>
		<circle class="st0" cx="116.31" cy="116.31" r="116.31"/>
		<g>
			<line class="st1" x1="63.85" y1="64.01" x2="63.2" y2="63.36"/>
			<polygon class="st2" points="89.52,89.6 76.52,110.83 63.53,64.01 63.85,64.01 			"/>
			<line class="st1" x1="63.53" y1="64.01" x2="63.2" y2="63.36"/>
			<path class="st2" d="M164.1,127.76l5.32,5.3v36.19l-23.79-23.72l-1.88-1.87l-19.19-19.13h1.67c9.53,0,17.31-7.63,17.52-17.08
				c0-0.13,0-0.26,0-0.39c0-9.63-7.86-17.47-17.52-17.47h-36.7L63.85,64.01h61.84c23.78,0,43.51,18.95,43.73,42.65
				C169.49,114.3,167.55,121.5,164.1,127.76z"/>
			<polygon class="st2" points="76.52,141.76 76.52,153.24 76.52,169.26 102.2,169.26 102.2,153.24 102.2,126.41 102.2,100.69 			
				"/>
			<polygon class="st2" points="150.27,169.25 80.35,169.25 80.35,143.66 124.61,143.66 			"/>
			<linearGradient id="SVGID_1_" gradientUnits="userSpaceOnUse" x1="76.32" y1="78.5473" x2="72.9748" y2="107.1668">
				<stop  offset="0" style="stop-color:#B3B3B3"/>
				<stop  offset="1" style="stop-color:#FFFFFF;stop-opacity:0"/>
			</linearGradient>
			<polygon class="st3" points="89.52,89.6 76.52,110.83 63.53,64.01 63.85,64.01 			"/>
		</g>
	</g>
	<g>
		<g>
			<path class="st4" d="M285.62,74.34V40.99h7.44v26.72h14.22v6.63H285.62z"/>
			<path class="st4" d="M346.32,40.99v6.63h-16.61v6.87h14.94v6.35h-14.94v6.92h17.13v6.59h-24.58V40.99H346.32z"/>
			<path class="st4" d="M386.79,74.34l-3.1-7.21H369.7l-3.1,7.21h-7.92l14.41-33.36h7.21l14.41,33.36H386.79z M376.72,50.91
				l-4.2,9.69h8.35L376.72,50.91z"/>
			<path class="st4" d="M435.18,52.06c0,5.34-2.12,8.8-6.35,10.36l8.45,11.93h-9.16l-7.4-10.64h-5.15v10.64h-7.44V40.99h12.65
				c5.18,0,8.88,0.88,11.1,2.62C434.07,45.36,435.18,48.18,435.18,52.06z M426.2,56.02c0.92-0.83,1.38-2.14,1.38-3.94
				c0-1.8-0.48-3.03-1.43-3.7c-0.95-0.67-2.62-1-5.01-1h-5.58v9.88H421C423.55,57.26,425.28,56.85,426.2,56.02z"/>
			<path class="st4" d="M475.69,40.99h7.44v33.36h-7.44l-15.89-20.9v20.9h-7.44V40.99h6.97l16.37,21.47V40.99z"/>
			<path class="st4" d="M533.43,60.17l5.92-19.18h7.78L553,60.17l6.63-19.18h8.06l-11.64,33.36h-5.54l-7.3-23.19l-7.25,23.19h-5.54
				l-11.64-33.36h8.06L533.43,60.17z"/>
			<path class="st4" d="M581.2,40.99h7.44v33.36h-7.44V40.99z"/>
			<path class="st4" d="M620.52,47.43v26.91h-7.44V47.43h-9.45v-6.44h26.34v6.44H620.52z"/>
			<path class="st4" d="M665.67,40.99h7.44v33.36h-7.44V61.22H652.4v13.12h-7.44V40.99h7.44v13.93h13.27V40.99z"/>
		</g>
		<g>
			<path class="st0" d="M348.49,202.4l-23.64-35.3h-19.07v35.3h-24.27V92.08h50.43c13.13,0,23.35,3.21,30.65,9.61
				c7.3,6.41,10.95,15.34,10.95,26.79v0.32c0,8.93-2.18,16.21-6.54,21.83c-4.36,5.62-10.06,9.75-17.1,12.37l26.95,39.4H348.49z
				 M348.97,129.75c0-5.25-1.68-9.19-5.04-11.82c-3.36-2.63-8.04-3.94-14.03-3.94h-24.11v31.68h24.59c5.99,0,10.58-1.42,13.79-4.26
				c3.2-2.84,4.81-6.62,4.81-11.35V129.75z"/>
			<path class="st0" d="M477.57,202.4l-10.09-24.74h-46.65l-10.09,24.74H386l47.28-111.11h22.38l47.28,111.11H477.57z
				 M444.16,120.45l-14.66,35.78h29.31L444.16,120.45z"/>
			<path class="st0" d="M591.19,202.4L557,155.44l-12.77,13.24v33.73h-24.27V92.08h24.27v48.23l44.76-48.23h29.31l-44.92,46.81
				l46.96,63.51H591.19z"/>
			<path class="st0" d="M636.11,202.4V92.08h24.27V202.4H636.11z"/>
			<path class="st0" d="M778.66,185.38c-1.94,3.78-4.72,6.93-8.34,9.46c-3.62,2.52-7.97,4.41-13.06,5.67
				c-5.09,1.26-10.72,1.89-16.91,1.89h-52.39V92.08h51.13c11.33,0,20.21,2.58,26.66,7.72c6.45,5.15,9.67,12.08,9.67,20.8v0.32
				c0,3.15-0.39,5.94-1.17,8.35c-0.78,2.42-1.83,4.6-3.13,6.54c-1.31,1.95-2.82,3.65-4.54,5.12c-1.72,1.47-3.58,2.73-5.56,3.78
				c6.38,2.42,11.4,5.7,15.06,9.85c3.66,4.15,5.49,9.9,5.49,17.26v0.32C781.57,177.19,780.6,181.6,778.66,185.38z M751.47,124.71
				c0-3.68-1.37-6.49-4.1-8.43c-2.73-1.94-6.67-2.92-11.82-2.92H711.6v23.33h22.38c5.36,0,9.61-0.92,12.77-2.76
				c3.15-1.84,4.73-4.81,4.73-8.9V124.71z M757.62,168.83c0-3.68-1.42-6.59-4.26-8.75c-2.84-2.15-7.41-3.23-13.71-3.23H711.6v24.27
				h28.84c5.36,0,9.56-0.97,12.61-2.92c3.05-1.94,4.57-4.96,4.57-9.06V168.83z"/>
		</g>
	</g>
</g>
</svg>
